<?xml version="1.0" encoding="UTF-8" standalone="no"?>
<svg
   xmlns:dc="http://purl.org/dc/elements/1.1/"
   xmlns:cc="http://creativecommons.org/ns#"
   xmlns:rdf="http://www.w3.org/1999/02/22-rdf-syntax-ns#"
   xmlns:svg="http://www.w3.org/2000/svg"
   xmlns="http://www.w3.org/2000/svg"
   xmlns:sodipodi="http://sodipodi.sourceforge.net/DTD/sodipodi-0.dtd"
   xmlns:inkscape="http://www.inkscape.org/namespaces/inkscape"
   version="1.1"
   x="0px"
   y="0px"
   viewBox="0 0 64 64"
   enable-background="new 0 0 100 100"
   xml:space="preserve"
   id="svg2"
   inkscape:version="0.91 r13725"
   sodipodi:docname="Extension.svg"
   width="64"
   height="64"><metadata
     id="metadata14"><rdf:RDF><cc:Work
         rdf:about=""><dc:format>image/svg+xml</dc:format><dc:type
           rdf:resource="http://purl.org/dc/dcmitype/StillImage" /><dc:title></dc:title></cc:Work></rdf:RDF></metadata><defs
     id="defs12" /><sodipodi:namedview
     pagecolor="#ffffff"
     bordercolor="#666666"
     borderopacity="1"
     objecttolerance="10"
     gridtolerance="10"
     guidetolerance="10"
     inkscape:pageopacity="0"
     inkscape:pageshadow="2"
     inkscape:window-width="2551"
     inkscape:window-height="1401"
     id="namedview10"
     showgrid="false"
     inkscape:zoom="4.5998526"
     inkscape:cx="50"
     inkscape:cy="48.974074"
     inkscape:window-x="0"
     inkscape:window-y="0"
     inkscape:window-maximized="0"
     inkscape:current-layer="svg2" /><rect
     style="fill:#000000;fill-opacity:1;stroke:none;stroke-width:2;stroke-linecap:square;stroke-linejoin:round;stroke-miterlimit:4;stroke-dasharray:none;stroke-dashoffset:0;stroke-opacity:0.76470588"
     id="rect4173"
     width="64"
     height="64"
     x="0"
     y="0" /><path
     d="m 14.307038,28.480394 -9.6633394,4.982577 0,-9.965154 9.6633394,4.982577 z"
     id="path4152"
     inkscape:connector-curvature="0"
     style="fill:#ffffff;fill-opacity:1" /><path
     d="m 25.466637,4.0154735 -8.104737,0 0,49.3734555 8.104737,0 0,-49.3734555 z"
     id="path4150"
     inkscape:connector-curvature="0"
     style="fill:#6be6b0;fill-opacity:1" /><path
     d="m 36.813268,4.0154735 -8.104736,0 0,49.3734555 8.104736,0 0,-49.3734555 z"
     id="path4148"
     inkscape:connector-curvature="0"
     style="fill:#6be6b0;fill-opacity:1" /><path
     d="m 51.464138,23.497817 0,9.965154 9.66334,-4.982577 -9.66334,-4.982577 z"
     id="path4146"
     inkscape:connector-curvature="0"
     style="fill:#ffffff;fill-opacity:1" /><path
     d="m 48.222244,4.0154735 -8.104737,0 0,49.3734555 8.104737,0 0,-49.3734555 z"
     id="path4144"
     inkscape:connector-curvature="0"
     style="fill:#6be6b0;fill-opacity:1" /><path
     d="m 52.835709,48.506004 0,7.972123 -39.900242,0 0,-7.972123 -4.98753,0 0,7.972123 0,3.986062 4.98753,0 39.900242,0 4.98753,0 0,-3.986062 0,-7.972123 -4.98753,0 z"
     id="path4"
     style="fill:#ffffff;fill-opacity:1"
     inkscape:connector-curvature="0" /></svg>